<svg width="28" height="28" viewBox="0 0 28 28" fill="none" xmlns="http://www.w3.org/2000/svg">
<path d="M14 10.3555C11.993 10.3555 10.3551 11.9934 10.3551 14.0004C10.3551 16.0075 11.993 17.6453 14 17.6453C16.007 17.6453 17.6449 16.0075 17.6449 14.0004C17.6449 11.9934 16.007 10.3555 14 10.3555ZM24.932 14.0004C24.932 12.491 24.9457 10.9953 24.8609 9.4887C24.7762 7.7387 24.377 6.18558 23.0973 4.90589C21.8149 3.62347 20.2645 3.22699 18.5145 3.14222C17.0051 3.05745 15.5094 3.07113 14.0027 3.07113C12.4934 3.07113 10.9977 3.05745 9.49102 3.14222C7.74102 3.22699 6.1879 3.6262 4.90821 4.90589C3.62579 6.18831 3.2293 7.7387 3.14454 9.4887C3.05977 10.9981 3.07345 12.4938 3.07345 14.0004C3.07345 15.5071 3.05977 17.0055 3.14454 18.5121C3.2293 20.2621 3.62852 21.8153 4.90821 23.095C6.19063 24.3774 7.74102 24.7739 9.49102 24.8586C11.0004 24.9434 12.4961 24.9297 14.0027 24.9297C15.5121 24.9297 17.0078 24.9434 18.5145 24.8586C20.2645 24.7739 21.8176 24.3746 23.0973 23.095C24.3797 21.8125 24.7762 20.2621 24.8609 18.5121C24.9484 17.0055 24.932 15.5098 24.932 14.0004V14.0004ZM14 19.6086C10.8965 19.6086 8.3918 17.1039 8.3918 14.0004C8.3918 10.8969 10.8965 8.39222 14 8.39222C17.1035 8.39222 19.6082 10.8969 19.6082 14.0004C19.6082 17.1039 17.1035 19.6086 14 19.6086ZM19.8379 9.4723C19.1133 9.4723 18.5281 8.88714 18.5281 8.16253C18.5281 7.43792 19.1133 6.85277 19.8379 6.85277C20.5625 6.85277 21.1477 7.43792 21.1477 8.16253C21.1479 8.33459 21.1142 8.50501 21.0484 8.66401C20.9827 8.82302 20.8862 8.96749 20.7645 9.08916C20.6429 9.21082 20.4984 9.30729 20.3394 9.37304C20.1804 9.43878 20.01 9.47251 19.8379 9.4723V9.4723Z" fill="white"/>
</svg>
