<svg width="45" height="45" viewBox="0 0 45 45" fill="none" xmlns="http://www.w3.org/2000/svg">
<path d="M10.125 13.875C9.76033 13.875 9.41059 14.0199 9.15273 14.2777C8.89487 14.5356 8.75 14.8853 8.75 15.25C8.75 15.6147 8.89487 15.9644 9.15273 16.2223C9.41059 16.4801 9.76033 16.625 10.125 16.625H29.375C29.7397 16.625 30.0894 16.4801 30.3473 16.2223C30.6051 15.9644 30.75 15.6147 30.75 15.25C30.75 14.8853 30.6051 14.5356 30.3473 14.2777C30.0894 14.0199 29.7397 13.875 29.375 13.875H10.125ZM10.125 19.375C9.76033 19.375 9.41059 19.5199 9.15273 19.7777C8.89487 20.0356 8.75 20.3853 8.75 20.75V26.25C8.75 26.6147 8.89487 26.9644 9.15273 27.2223C9.41059 27.4801 9.76033 27.625 10.125 27.625H15.625C15.9897 27.625 16.3394 27.4801 16.5973 27.2223C16.8551 26.9644 17 26.6147 17 26.25V20.75C17 20.3853 16.8551 20.0356 16.5973 19.7777C16.3394 19.5199 15.9897 19.375 15.625 19.375H10.125ZM11.5 24.875V22.125H14.25V24.875H11.5ZM21.125 19.375C20.7603 19.375 20.4106 19.5199 20.1527 19.7777C19.8949 20.0356 19.75 20.3853 19.75 20.75C19.75 21.1147 19.8949 21.4644 20.1527 21.7223C20.4106 21.9801 20.7603 22.125 21.125 22.125H29.375C29.7397 22.125 30.0894 21.9801 30.3473 21.7223C30.6051 21.4644 30.75 21.1147 30.75 20.75C30.75 20.3853 30.6051 20.0356 30.3473 19.7777C30.0894 19.5199 29.7397 19.375 29.375 19.375H21.125ZM21.125 24.875C20.7603 24.875 20.4106 25.0199 20.1527 25.2777C19.8949 25.5356 19.75 25.8853 19.75 26.25C19.75 26.6147 19.8949 26.9644 20.1527 27.2223C20.4106 27.4801 20.7603 27.625 21.125 27.625H29.375C29.7397 27.625 30.0894 27.4801 30.3473 27.2223C30.6051 26.9644 30.75 26.6147 30.75 26.25C30.75 25.8853 30.6051 25.5356 30.3473 25.2777C30.0894 25.0199 29.7397 24.875 29.375 24.875H21.125ZM3.25 11.125C3.25 9.66631 3.82946 8.26736 4.86091 7.23591C5.89236 6.20446 7.29131 5.625 8.75 5.625H30.75C32.2087 5.625 33.6076 6.20446 34.6391 7.23591C35.6705 8.26736 36.25 9.66631 36.25 11.125C37.7087 11.125 39.1076 11.7045 40.1391 12.7359C41.1705 13.7674 41.75 15.1663 41.75 16.625V29C41.75 30.8234 41.0257 32.572 39.7364 33.8614C38.447 35.1507 36.6984 35.875 34.875 35.875H10.125C8.30164 35.875 6.55295 35.1507 5.26364 33.8614C3.97433 32.572 3.25 30.8234 3.25 29V11.125ZM34.875 29C34.5103 29 34.1606 28.8551 33.9027 28.5973C33.6449 28.3394 33.5 27.9897 33.5 27.625V11.125C33.5 10.3957 33.2103 9.69618 32.6945 9.18046C32.1788 8.66473 31.4793 8.375 30.75 8.375H8.75C8.02065 8.375 7.32118 8.66473 6.80546 9.18046C6.28973 9.69618 6 10.3957 6 11.125V29C6 30.094 6.4346 31.1432 7.20818 31.9168C7.98177 32.6904 9.03098 33.125 10.125 33.125H34.875C35.969 33.125 37.0182 32.6904 37.7918 31.9168C38.5654 31.1432 39 30.094 39 29V16.625C39 15.8957 38.7103 15.1962 38.1945 14.6805C37.6788 14.1647 36.9793 13.875 36.25 13.875V27.625C36.25 27.9897 36.1051 28.3394 35.8473 28.5973C35.5894 28.8551 35.2397 29 34.875 29Z" fill="#0088BA"/>
</svg>
