<svg width="24" height="24" viewBox="0 0 24 24" fill="none" xmlns="http://www.w3.org/2000/svg">
<g clip-path="url(#clip0_115_11)">
<path d="M23.296 16.0613L23.3306 15.9459C24.2231 13.3909 24.2231 10.6087 23.3306 8.0537L23.296 7.93832C22.4539 5.6168 20.9186 3.61019 18.8981 2.19028C16.8776 0.770357 14.4695 0.00574462 12 0C9.5297 0.00242922 7.1201 0.76574 5.09897 2.18611C3.07784 3.60647 1.54329 5.61494 0.704046 7.93832L0.669431 8.0537C-0.223144 10.6087 -0.223144 13.3909 0.669431 15.9459L0.704046 16.0613C1.54329 18.3846 3.07784 20.3931 5.09897 21.8135C7.1201 23.2338 9.5297 23.9971 12 23.9996C14.4703 23.9971 16.8799 23.2338 18.901 21.8135C20.9222 20.3931 22.4567 18.3846 23.296 16.0613ZM9.05774 16.6151H14.9423C14.351 18.4505 13.3441 20.1247 12 21.5073C10.6559 20.1247 9.64901 18.4505 9.05774 16.6151V16.6151ZM8.57314 14.769C8.21939 12.9398 8.21939 11.0598 8.57314 9.23061H15.4269C15.6025 10.1432 15.6914 11.0704 15.6922 11.9998C15.6919 12.9292 15.6031 13.8564 15.4269 14.769H8.57314ZM1.84633 11.9998C1.8483 11.0638 1.97637 10.1324 2.2271 9.23061H6.6924C6.38471 11.0639 6.38471 12.9357 6.6924 14.769H2.2271C1.97637 13.8672 1.8483 12.9358 1.84633 11.9998V11.9998ZM14.9423 7.38448H9.05774C9.64901 5.54908 10.6559 3.87489 12 2.49226C13.3441 3.87489 14.351 5.54908 14.9423 7.38448V7.38448ZM17.3076 9.23061H21.7729C22.2807 11.0418 22.2807 12.9578 21.7729 14.769H17.3076C17.6153 12.9357 17.6153 11.0639 17.3076 9.23061V9.23061ZM21.046 7.38448H16.8922C16.337 5.44065 15.3908 3.63063 14.1115 2.06535C15.5887 2.3843 16.9767 3.02677 18.1758 3.94653C19.3749 4.86628 20.3551 6.04044 21.046 7.38448V7.38448ZM9.8885 2.06535C8.60919 3.63063 7.66296 5.44065 7.10778 7.38448H2.95401C3.64486 6.04044 4.62511 4.86628 5.82419 3.94653C7.02326 3.02677 8.41134 2.3843 9.8885 2.06535V2.06535ZM2.95401 16.6151H7.10778C7.66296 18.5589 8.60919 20.3689 9.8885 21.9342C8.41043 21.6176 7.02134 20.976 5.82194 20.056C4.62254 19.136 3.64289 17.9606 2.95401 16.6151V16.6151ZM14.1115 21.9342C15.3908 20.3689 16.337 18.5589 16.8922 16.6151H21.046C20.3571 17.9606 19.3775 19.136 18.1781 20.056C16.9787 20.976 15.5896 21.6176 14.1115 21.9342V21.9342Z" fill="#F2F2F2"/>
</g>
<defs>
<clipPath id="clip0_115_11">
<rect width="24" height="24" fill="white"/>
</clipPath>
</defs>
</svg>
